<svg width="25" height="24" viewBox="0 0 25 24" fill="none" xmlns="http://www.w3.org/2000/svg">
<rect width="25" height="24" fill="#8E8E8E"/>
<rect width="1440" height="2688" transform="translate(-1312 -573)" fill="white"/>
<path d="M-1224 -5C-1224 -6.88562 -1224 -7.82843 -1223.41 -8.41421C-1222.83 -9 -1221.89 -9 -1220 -9H1V33H-1220C-1221.89 33 -1222.83 33 -1223.41 32.4142C-1224 31.8284 -1224 30.8856 -1224 29V-5Z" fill="#F3F3F3"/>
<path d="M-15 -9H36C37.8856 -9 38.8284 -9 39.4142 -8.41421C40 -7.82843 40 -6.88562 40 -5V29C40 30.8856 40 31.8284 39.4142 32.4142C38.8284 33 37.8856 33 36 33H-15V-9Z" fill="#509E2F"/>
<path fill-rule="evenodd" clip-rule="evenodd" d="M11.5 4C7.63401 4 4.5 7.13401 4.5 11C4.5 14.866 7.63401 18 11.5 18C15.366 18 18.5 14.866 18.5 11C18.5 7.13401 15.366 4 11.5 4ZM2.5 11C2.5 6.02944 6.52944 2 11.5 2C16.4706 2 20.5 6.02944 20.5 11C20.5 15.9706 16.4706 20 11.5 20C6.52944 20 2.5 15.9706 2.5 11Z" fill="white"/>
<path fill-rule="evenodd" clip-rule="evenodd" d="M16.4429 15.9429C16.8334 15.5524 17.4666 15.5524 17.8571 15.9429L22.2071 20.2929C22.5977 20.6834 22.5977 21.3166 22.2071 21.7071C21.8166 22.0977 21.1834 22.0977 20.7929 21.7071L16.4429 17.3571C16.0524 16.9666 16.0524 16.3334 16.4429 15.9429Z" fill="white"/>
</svg>
